<svg width="323" height="108" viewBox="0 0 323 108" fill="none" xmlns="http://www.w3.org/2000/svg">
<rect width="323" height="108" rx="12" fill="#101010" fill-opacity="0.2"/>
<path d="M45.75 38.875H40.25C39.4906 38.875 38.875 39.4906 38.875 40.25V67.75C38.875 68.5094 39.4906 69.125 40.25 69.125H45.75C46.5094 69.125 47.125 68.5094 47.125 67.75V40.25C47.125 39.4906 46.5094 38.875 45.75 38.875Z" stroke="#ECECEC" stroke-width="2" stroke-linecap="round" stroke-linejoin="round"/>
<path d="M38.875 45.75H47.125" stroke="#ECECEC" stroke-width="2" stroke-linecap="round" stroke-linejoin="round"/>
<path d="M54 38.875H48.5C47.7406 38.875 47.125 39.4906 47.125 40.25V67.75C47.125 68.5094 47.7406 69.125 48.5 69.125H54C54.7594 69.125 55.375 68.5094 55.375 67.75V40.25C55.375 39.4906 54.7594 38.875 54 38.875Z" stroke="#ECECEC" stroke-width="2" stroke-linecap="round" stroke-linejoin="round"/>
<path d="M47.125 62.25H55.375" stroke="#ECECEC" stroke-width="2" stroke-linecap="round" stroke-linejoin="round"/>
<path d="M62.1702 38.425L56.8352 39.855C56.0985 40.0525 55.6615 40.8096 55.8589 41.5463L63.0089 68.2213C63.2063 68.9579 63.9635 69.395 64.7002 69.1975L70.0352 67.7675C70.7718 67.5701 71.2088 66.8129 71.0114 66.0763L63.8614 39.4013C63.664 38.6646 62.9068 38.2276 62.1702 38.425Z" stroke="#ECECEC" stroke-width="2" stroke-linecap="round" stroke-linejoin="round"/>
<path d="M61.425 62.8L69.4001 60.6515" stroke="#ECECEC" stroke-width="2" stroke-linecap="round" stroke-linejoin="round"/>
<path d="M57.1624 46.85L65.1374 44.7188" stroke="#ECECEC" stroke-width="2" stroke-linecap="round" stroke-linejoin="round"/>
<path d="M87.612 44.432L85.428 44.096V42.696H89.096C89.6747 42.696 90.5053 42.6587 91.588 42.584C92.6707 42.5093 93.4827 42.472 94.024 42.472C97.496 42.472 100.072 43.3493 101.752 45.104C103.451 46.84 104.3 49.2853 104.3 52.44C104.3 54.6427 103.861 56.6027 102.984 58.32C102.125 60.0187 100.912 61.344 99.344 62.296C97.776 63.248 95.9747 63.724 93.94 63.724C93.492 63.724 92.7267 63.6867 91.644 63.612C90.524 63.5373 89.684 63.5 89.124 63.5H85.288V62.128L87.612 61.848V44.432ZM90.58 61.932C91.2333 62.0813 92.0733 62.156 93.1 62.156H93.94C95.34 62.1373 96.572 61.7827 97.636 61.092C98.7187 60.4013 99.5587 59.3747 100.156 58.012C100.753 56.6307 101.052 54.96 101.052 53C101.052 50.0507 100.408 47.8107 99.12 46.28C97.8507 44.7493 95.928 43.984 93.352 43.984C92.8107 43.984 92.1667 44.0213 91.42 44.096C91.1027 44.152 90.8227 44.18 90.58 44.18V61.932ZM109.783 45.16C109.185 45.16 108.737 44.992 108.439 44.656C108.14 44.32 107.991 43.8907 107.991 43.368C107.991 42.7707 108.168 42.276 108.523 41.884C108.896 41.492 109.4 41.296 110.035 41.296C110.669 41.296 111.136 41.464 111.435 41.8C111.733 42.136 111.883 42.5653 111.883 43.088C111.883 43.7227 111.696 44.2267 111.323 44.6C110.968 44.9733 110.464 45.16 109.811 45.16H109.783ZM108.663 50.116L106.535 49.612V48.128L110.875 47.596H110.931L111.575 48.1V61.904L113.815 62.128V63.5H106.395V62.128L108.663 61.876V50.116ZM115.467 55.828C115.467 54.2787 115.766 52.8787 116.363 51.628C116.979 50.3773 117.875 49.388 119.051 48.66C120.246 47.9133 121.674 47.54 123.335 47.54C124.138 47.54 124.828 47.6147 125.407 47.764C125.986 47.9133 126.676 48.1187 127.479 48.38L127.367 52.692H125.547L124.931 49.836C124.819 49.3133 124.11 49.052 122.803 49.052C121.496 49.052 120.46 49.584 119.695 50.648C118.948 51.6933 118.575 53.1867 118.575 55.128C118.575 57.3307 118.995 59.0107 119.835 60.168C120.694 61.3067 121.804 61.876 123.167 61.876C123.951 61.876 124.688 61.7547 125.379 61.512C126.088 61.2693 126.695 60.98 127.199 60.644L127.731 61.764C127.227 62.2867 126.48 62.7627 125.491 63.192C124.52 63.6027 123.531 63.808 122.523 63.808C120.992 63.808 119.695 63.4627 118.631 62.772C117.586 62.0813 116.792 61.1387 116.251 59.944C115.728 58.7307 115.467 57.3587 115.467 55.828ZM134.946 63.78C133.882 63.78 133.089 63.5373 132.566 63.052C132.044 62.5667 131.782 61.736 131.782 60.56V49.808H129.766V48.548C129.86 48.5293 130.121 48.464 130.55 48.352C130.98 48.24 131.269 48.1373 131.418 48.044C131.717 47.876 131.95 47.54 132.118 47.036C132.268 46.6813 132.445 46.112 132.65 45.328C132.856 44.544 132.977 44.0773 133.014 43.928H134.666L134.722 47.96H139.398V49.808H134.722V58.404C134.722 59.468 134.75 60.2147 134.806 60.644C134.881 61.0733 135.021 61.3533 135.226 61.484C135.45 61.6147 135.824 61.68 136.346 61.68C136.85 61.68 137.401 61.6147 137.998 61.484C138.614 61.3533 139.09 61.2133 139.426 61.064L139.846 62.324C139.398 62.66 138.67 62.9867 137.662 63.304C136.673 63.6213 135.768 63.78 134.946 63.78ZM144.865 45.16C144.267 45.16 143.819 44.992 143.521 44.656C143.222 44.32 143.073 43.8907 143.073 43.368C143.073 42.7707 143.25 42.276 143.605 41.884C143.978 41.492 144.482 41.296 145.117 41.296C145.751 41.296 146.218 41.464 146.517 41.8C146.815 42.136 146.965 42.5653 146.965 43.088C146.965 43.7227 146.778 44.2267 146.405 44.6C146.05 44.9733 145.546 45.16 144.893 45.16H144.865ZM143.745 50.116L141.617 49.612V48.128L145.957 47.596H146.013L146.657 48.1V61.904L148.897 62.128V63.5H141.477V62.128L143.745 61.876V50.116ZM150.885 55.688C150.885 54.008 151.23 52.552 151.921 51.32C152.612 50.088 153.517 49.1547 154.637 48.52C155.776 47.8667 156.989 47.54 158.277 47.54C160.629 47.54 162.393 48.2867 163.569 49.78C164.764 51.2733 165.361 53.2333 165.361 55.66C165.361 57.3587 165.016 58.824 164.325 60.056C163.634 61.288 162.72 62.2213 161.581 62.856C160.461 63.4907 159.257 63.808 157.969 63.808C155.617 63.808 153.844 63.0613 152.649 61.568C151.473 60.0747 150.885 58.1147 150.885 55.688ZM158.137 62.212C159.425 62.212 160.414 61.68 161.105 60.616C161.796 59.552 162.141 57.9747 162.141 55.884C162.141 53.812 161.824 52.1693 161.189 50.956C160.554 49.7427 159.537 49.136 158.137 49.136C156.849 49.136 155.85 49.668 155.141 50.732C154.45 51.796 154.105 53.3733 154.105 55.464C154.105 57.536 154.432 59.1787 155.085 60.392C155.738 61.6053 156.756 62.212 158.137 62.212ZM169.6 50.116L167.584 49.612V48.1L171.588 47.596H171.672L172.26 48.1V49.276L172.232 49.948C172.904 49.3507 173.791 48.8093 174.892 48.324C175.993 47.8387 177.048 47.596 178.056 47.596C179.232 47.596 180.137 47.82 180.772 48.268C181.425 48.716 181.883 49.4067 182.144 50.34C182.405 51.2547 182.536 52.496 182.536 54.064V61.904L184.496 62.1V63.5H177.86V62.128L179.596 61.904V54.036C179.596 52.9347 179.521 52.076 179.372 51.46C179.223 50.8253 178.943 50.3587 178.532 50.06C178.121 49.7427 177.524 49.584 176.74 49.584C176.068 49.584 175.349 49.752 174.584 50.088C173.819 50.424 173.137 50.816 172.54 51.264V61.876L174.444 62.128V63.5H167.836V62.128L169.6 61.876V50.116ZM186.514 59.3C186.514 57.5453 187.391 56.2573 189.146 55.436C190.901 54.596 193.122 54.148 195.81 54.092V53.308C195.81 52.4307 195.717 51.74 195.53 51.236C195.343 50.732 195.017 50.368 194.55 50.144C194.102 49.9013 193.458 49.78 192.618 49.78C191.666 49.78 190.807 49.92 190.042 50.2C189.295 50.4613 188.549 50.788 187.802 51.18L187.102 49.724C187.345 49.5187 187.793 49.248 188.446 48.912C189.099 48.576 189.855 48.2773 190.714 48.016C191.573 47.7547 192.431 47.624 193.29 47.624C194.615 47.624 195.661 47.8107 196.426 48.184C197.21 48.5387 197.77 49.1173 198.106 49.92C198.442 50.7227 198.61 51.796 198.61 53.14V62.128H200.262V63.36C199.889 63.4533 199.413 63.5467 198.834 63.64C198.274 63.7333 197.779 63.78 197.35 63.78C196.827 63.78 196.473 63.696 196.286 63.528C196.099 63.3787 196.006 63.0333 196.006 62.492V61.568C195.446 62.128 194.755 62.6413 193.934 63.108C193.131 63.5747 192.217 63.808 191.19 63.808C189.846 63.808 188.726 63.4253 187.83 62.66C186.953 61.876 186.514 60.756 186.514 59.3ZM192.394 61.904C192.879 61.904 193.439 61.7547 194.074 61.456C194.709 61.1573 195.287 60.8027 195.81 60.392V55.576C193.775 55.576 192.235 55.8933 191.19 56.528C190.163 57.144 189.65 57.956 189.65 58.964C189.65 59.972 189.893 60.7187 190.378 61.204C190.882 61.6707 191.554 61.904 192.394 61.904ZM202.265 62.128L204.365 61.96V50.116L202.349 49.612V48.1L206.213 47.596H206.269L206.885 48.1V48.604L206.801 50.788H206.885C207.072 50.4707 207.408 50.06 207.893 49.556C208.379 49.052 209.004 48.5947 209.769 48.184C210.535 47.7547 211.365 47.54 212.261 47.54C212.635 47.54 212.943 47.5867 213.185 47.68V50.816C213.055 50.7227 212.84 50.6387 212.541 50.564C212.261 50.4707 211.944 50.424 211.589 50.424C210.04 50.424 208.603 50.9 207.277 51.852V61.932L210.833 62.156V63.5H202.265V62.128ZM217.301 70.472C216.984 70.472 216.667 70.4533 216.349 70.416C216.051 70.3787 215.836 70.3227 215.705 70.248V67.812C215.817 67.8867 216.032 67.9427 216.349 67.98C216.685 68.0173 217.003 68.036 217.301 68.036C218.197 68.036 218.981 67.7187 219.653 67.084C220.344 66.468 221.007 65.2733 221.641 63.5H220.297L214.977 49.64L213.689 49.276V47.96H220.437V49.276L218.281 49.612L221.025 57.872L222.313 61.96L223.517 57.844L226.009 49.612L224.133 49.276V47.96H229.761V49.276L228.361 49.612C225.617 58.012 224.003 62.7813 223.517 63.92C222.883 65.5253 222.304 66.776 221.781 67.672C221.259 68.5867 220.643 69.2773 219.933 69.744C219.224 70.2293 218.347 70.472 217.301 70.472ZM244.561 42.528H247.641L254.445 61.848L256.181 62.128V63.5H248.789V62.128L251.113 61.848L249.797 57.704H241.621L240.305 61.848L242.713 62.128V63.5H236.077V62.128L237.813 61.848L244.561 42.528ZM246.325 47.008L245.625 44.544L244.953 47.064L242.125 56.052H249.265L246.325 47.008ZM272.236 55.184C272.236 56.7707 271.909 58.2267 271.256 59.552C270.603 60.8587 269.669 61.8947 268.456 62.66C267.243 63.4253 265.824 63.808 264.2 63.808C263.752 63.808 263.267 63.7707 262.744 63.696C262.221 63.6213 261.801 63.528 261.484 63.416L261.568 65.768V68.596L264.48 68.904V70.276H256.668V68.904L258.684 68.596V50.116L256.64 49.612V48.1L260.616 47.596H260.672L261.26 48.1V49.752C261.82 49.136 262.511 48.6133 263.332 48.184C264.172 47.7547 265.105 47.54 266.132 47.54C267.233 47.54 268.241 47.8107 269.156 48.352C270.089 48.8933 270.836 49.7333 271.396 50.872C271.956 52.0107 272.236 53.448 272.236 55.184ZM264.984 49.5C264.275 49.5 263.612 49.6493 262.996 49.948C262.38 50.2467 261.904 50.5733 261.568 50.928V61.484C261.699 61.708 262.025 61.9133 262.548 62.1C263.089 62.268 263.677 62.352 264.312 62.352C265.749 62.352 266.907 61.7827 267.784 60.644C268.68 59.5053 269.128 57.788 269.128 55.492C269.128 53.476 268.736 51.9733 267.952 50.984C267.187 49.9947 266.197 49.5 264.984 49.5ZM289.818 55.184C289.818 56.7707 289.491 58.2267 288.838 59.552C288.185 60.8587 287.251 61.8947 286.038 62.66C284.825 63.4253 283.406 63.808 281.782 63.808C281.334 63.808 280.849 63.7707 280.326 63.696C279.803 63.6213 279.383 63.528 279.066 63.416L279.15 65.768V68.596L282.062 68.904V70.276H274.25V68.904L276.266 68.596V50.116L274.222 49.612V48.1L278.198 47.596H278.254L278.842 48.1V49.752C279.402 49.136 280.093 48.6133 280.914 48.184C281.754 47.7547 282.687 47.54 283.714 47.54C284.815 47.54 285.823 47.8107 286.738 48.352C287.671 48.8933 288.418 49.7333 288.978 50.872C289.538 52.0107 289.818 53.448 289.818 55.184ZM282.566 49.5C281.857 49.5 281.194 49.6493 280.578 49.948C279.962 50.2467 279.486 50.5733 279.15 50.928V61.484C279.281 61.708 279.607 61.9133 280.13 62.1C280.671 62.268 281.259 62.352 281.894 62.352C283.331 62.352 284.489 61.7827 285.366 60.644C286.262 59.5053 286.71 57.788 286.71 55.492C286.71 53.476 286.318 51.9733 285.534 50.984C284.769 49.9947 283.779 49.5 282.566 49.5Z" fill="#ECECEC"/>
</svg>
